<?xml version="1.0" encoding="UTF-8" standalone="no"?>
<!-- Generator: Adobe Illustrator 15.0.2, SVG Export Plug-In . SVG Version: 6.00 Build 0)  -->

<svg
   xmlns:dc="http://purl.org/dc/elements/1.1/"
   xmlns:cc="http://creativecommons.org/ns#"
   xmlns:rdf="http://www.w3.org/1999/02/22-rdf-syntax-ns#"
   xmlns:svg="http://www.w3.org/2000/svg"
   xmlns="http://www.w3.org/2000/svg"
   xmlns:sodipodi="http://sodipodi.sourceforge.net/DTD/sodipodi-0.dtd"
   xmlns:inkscape="http://www.inkscape.org/namespaces/inkscape"
   version="1.0"
   id="svg5692"
   inkscape:version="0.48.4 r9939"
   sodipodi:docname="icon.svg"
   inkscape:export-filename="/media/home1/robert/svn/graphics/trunk/toolbar-icons/32x32/table-field-create.png"
   inkscape:export-ydpi="90"
   inkscape:export-xdpi="90"
   x="0px"
   y="0px"
   width="24px"
   height="24px"
   viewBox="4 4 24 24"
   enable-background="new 4 4 24 24"
   xml:space="preserve"><metadata
   id="metadata13"><rdf:RDF><cc:Work
       rdf:about=""><dc:format>image/svg+xml</dc:format><dc:type
         rdf:resource="http://purl.org/dc/dcmitype/StillImage" /><dc:title></dc:title></cc:Work></rdf:RDF></metadata><defs
   id="defs11" /><sodipodi:namedview
   pagecolor="#ffffff"
   bordercolor="#666666"
   borderopacity="1"
   objecttolerance="10"
   gridtolerance="10"
   guidetolerance="10"
   inkscape:pageopacity="0"
   inkscape:pageshadow="2"
   inkscape:window-width="1920"
   inkscape:window-height="1018"
   id="namedview9"
   showgrid="false"
   inkscape:zoom="13.906433"
   inkscape:cx="3.2464612"
   inkscape:cy="8.7357559"
   inkscape:window-x="1912"
   inkscape:window-y="-8"
   inkscape:window-maximized="1"
   inkscape:current-layer="svg5692" />

<g
   id="g3"
   transform="matrix(1.058259,0,0,1.043264,-4.5861602,-0.47615693)">
	<path
   id="path3002"
   d="m 13.269,15.218 c -2.248,-0.799 -3.374,-2.011 -3.374,-3.632 0,-1.279 0.594,-2.301 1.78,-3.067 1.198,-0.764 2.683,-1.147 4.451,-1.147 1.606,0 2.88,0.269 3.828,0.804 0.949,0.526 1.423,1.161 1.423,1.903 0,0.388 -0.147,0.729 -0.446,1.028 -0.295,0.285 -0.639,0.428 -1.026,0.428 -0.64,0 -1.165,-0.446 -1.576,-1.337 -0.567,-1.233 -1.42,-1.85 -2.559,-1.85 -0.901,0 -1.645,0.296 -2.227,0.89 -0.583,0.594 -0.875,1.423 -0.875,2.485 0,2.089 1.081,3.135 3.239,3.135 0.227,0 0.488,-0.023 0.783,-0.069 0.513,-0.067 0.911,-0.102 1.196,-0.102 0.693,0 1.042,0.199 1.042,0.599 0,0.445 -0.354,0.667 -1.061,0.667 -0.25,0 -0.624,-0.04 -1.125,-0.12 -0.377,-0.069 -0.667,-0.103 -0.871,-0.103 -2.285,0 -3.426,1.16 -3.426,3.485 0,1.13 0.303,2.044 0.909,2.741 0.604,0.685 1.452,1.028 2.534,1.028 1.355,0 2.251,-0.704 2.697,-2.109 0.229,-0.741 0.479,-1.256 0.753,-1.542 0.287,-0.284 0.664,-0.428 1.133,-0.428 0.388,0 0.733,0.144 1.044,0.428 0.32,0.274 0.479,0.629 0.479,1.062 0,1.04 -0.583,1.902 -1.747,2.589 -1.166,0.672 -2.573,1.009 -4.224,1.009 -1.813,0 -3.43,-0.433 -4.843,-1.301 -1.404,-0.869 -2.107,-2.029 -2.107,-3.478 0,-1.812 1.399,-3.142 4.196,-3.996"
   inkscape:connector-curvature="0"
   style="fill:#5c3566" />
	<path
   id="path3778"
   sodipodi:nodetypes="csss"
   enable-background="new    "
   d="M 11.848,10.234 C 9.73,12.522 10.212,9.858 11.481,8.94 c 1.315,-0.951 2.053,-0.927 2.043,-0.637 -0.01,0.34 -1.007,1.212 -1.676,1.931 z"
   inkscape:connector-curvature="0"
   style="opacity:0.5;fill:#ffffff" />
	<path
   id="path3807"
   sodipodi:nodetypes="csss"
   enable-background="new    "
   d="m 11.137,17.604 c -2.121,2.286 -1.757,0.171 -0.485,-0.741 1.313,-0.946 2.052,-0.924 2.042,-0.632 -0.011,0.336 -0.893,0.658 -1.557,1.373 z"
   inkscape:connector-curvature="0"
   style="opacity:0.5;fill:#ffffff" />
	<path
   id="path3809"
   sodipodi:nodetypes="css"
   enable-background="new    "
   d="m 20.446,20.159 c -2.045,2.282 -1.89,0.114 -0.575,-0.727 1.004,-0.641 1.3,-0.084 0.575,0.727 z"
   inkscape:connector-curvature="0"
   style="opacity:0.5;fill:#ffffff" />
</g><g
   id="text3777"
   style="font-size:15.66382313px;font-style:normal;font-weight:normal;line-height:125%;letter-spacing:0px;word-spacing:0px;fill:#000000;fill-opacity:1;stroke:none;font-family:'=========================================================================================================';-inkscape-font-specification:'========================================================================================================='"
   transform="matrix(1.058259,0,0,1.043264,-2.0682864,-3.3261036)"><path
     inkscape:connector-curvature="0"
     id="path3792"
     d="m 22.50954,18.400298 0,-3.074637 -3.051692,0 0,-1.284923 3.051692,0 0,-3.051692 1.300219,0 0,3.051692 3.051693,0 0,1.284923 -3.051693,0 0,3.074637 z" /></g></svg>